<mxfile host="app.diagrams.net" modified="2022-05-26T08:04:03.751Z" agent="5.0 (X11; Linux x86_64) AppleWebKit/537.36 (KHTML, like Gecko) Chrome/100.0.4896.75 Safari/537.36" etag="i_b-TS7HNpq9TfCDTePj" version="18.1.2" type="github">
  <diagram id="C5RBs43oDa-KdzZeNtuy" name="Page-1">
    <mxGraphModel dx="1350" dy="805" grid="1" gridSize="10" guides="1" tooltips="1" connect="1" arrows="1" fold="1" page="1" pageScale="1" pageWidth="827" pageHeight="1169" math="0" shadow="0">
      <root>
        <mxCell id="WIyWlLk6GJQsqaUBKTNV-0" />
        <mxCell id="WIyWlLk6GJQsqaUBKTNV-1" parent="WIyWlLk6GJQsqaUBKTNV-0" />
        <mxCell id="sqbIsw3hlbKRLwTeyo-x-0" value="主角/敵人" style="rounded=0;whiteSpace=wrap;html=1;" vertex="1" parent="WIyWlLk6GJQsqaUBKTNV-1">
          <mxGeometry x="40" y="120" width="120" height="60" as="geometry" />
        </mxCell>
        <mxCell id="sqbIsw3hlbKRLwTeyo-x-7" value="" style="endArrow=classic;html=1;rounded=0;" edge="1" parent="WIyWlLk6GJQsqaUBKTNV-1">
          <mxGeometry width="50" height="50" relative="1" as="geometry">
            <mxPoint x="190" y="149.5" as="sourcePoint" />
            <mxPoint x="270" y="150" as="targetPoint" />
          </mxGeometry>
        </mxCell>
        <mxCell id="sqbIsw3hlbKRLwTeyo-x-9" value="&lt;font style=&quot;font-size: 15px;&quot;&gt;選擇技能&lt;/font&gt;" style="text;html=1;resizable=0;autosize=1;align=center;verticalAlign=middle;points=[];fillColor=none;strokeColor=none;rounded=0;labelBackgroundColor=default;labelBorderColor=#6666FF;" vertex="1" parent="WIyWlLk6GJQsqaUBKTNV-1">
          <mxGeometry x="190" y="120" width="80" height="20" as="geometry" />
        </mxCell>
        <mxCell id="sqbIsw3hlbKRLwTeyo-x-10" value="|主角/敵人" style="rounded=0;whiteSpace=wrap;html=1;" vertex="1" parent="WIyWlLk6GJQsqaUBKTNV-1">
          <mxGeometry x="280" y="120" width="120" height="60" as="geometry" />
        </mxCell>
        <mxCell id="sqbIsw3hlbKRLwTeyo-x-12" value="" style="endArrow=classic;html=1;rounded=0;" edge="1" parent="WIyWlLk6GJQsqaUBKTNV-1">
          <mxGeometry width="50" height="50" relative="1" as="geometry">
            <mxPoint x="440" y="149.5" as="sourcePoint" />
            <mxPoint x="520" y="150" as="targetPoint" />
          </mxGeometry>
        </mxCell>
        <mxCell id="sqbIsw3hlbKRLwTeyo-x-13" value="&lt;span style=&quot;font-size: 15px;&quot;&gt;技能數值&lt;/span&gt;" style="text;html=1;resizable=0;autosize=1;align=center;verticalAlign=middle;points=[];fillColor=none;strokeColor=none;rounded=0;labelBackgroundColor=default;labelBorderColor=#6666FF;" vertex="1" parent="WIyWlLk6GJQsqaUBKTNV-1">
          <mxGeometry x="430" y="120" width="80" height="20" as="geometry" />
        </mxCell>
        <mxCell id="sqbIsw3hlbKRLwTeyo-x-14" value="" style="endArrow=classic;html=1;rounded=0;" edge="1" parent="WIyWlLk6GJQsqaUBKTNV-1">
          <mxGeometry width="50" height="50" relative="1" as="geometry">
            <mxPoint x="520" y="189" as="sourcePoint" />
            <mxPoint x="440" y="189.5" as="targetPoint" />
          </mxGeometry>
        </mxCell>
        <mxCell id="sqbIsw3hlbKRLwTeyo-x-15" value="&lt;span style=&quot;font-size: 15px;&quot;&gt;增減的數值&lt;/span&gt;" style="text;html=1;resizable=0;autosize=1;align=center;verticalAlign=middle;points=[];fillColor=none;strokeColor=none;rounded=0;labelBackgroundColor=default;labelBorderColor=#6666FF;" vertex="1" parent="WIyWlLk6GJQsqaUBKTNV-1">
          <mxGeometry x="430" y="160" width="90" height="20" as="geometry" />
        </mxCell>
        <mxCell id="sqbIsw3hlbKRLwTeyo-x-17" value="使用技能" style="ellipse;whiteSpace=wrap;html=1;labelBackgroundColor=default;labelBorderColor=#6666FF;fontSize=15;" vertex="1" parent="WIyWlLk6GJQsqaUBKTNV-1">
          <mxGeometry x="560" y="120" width="120" height="80" as="geometry" />
        </mxCell>
        <mxCell id="sqbIsw3hlbKRLwTeyo-x-18" value="" style="curved=1;endArrow=classic;html=1;rounded=0;fontSize=15;" edge="1" parent="WIyWlLk6GJQsqaUBKTNV-1">
          <mxGeometry width="50" height="50" relative="1" as="geometry">
            <mxPoint x="370" y="180" as="sourcePoint" />
            <mxPoint x="330" y="260" as="targetPoint" />
            <Array as="points">
              <mxPoint x="370" y="230" />
            </Array>
          </mxGeometry>
        </mxCell>
        <mxCell id="sqbIsw3hlbKRLwTeyo-x-20" value="更新後數值" style="text;html=1;resizable=0;autosize=1;align=center;verticalAlign=middle;points=[];fillColor=none;strokeColor=none;rounded=0;labelBackgroundColor=default;labelBorderColor=#6666FF;fontSize=15;" vertex="1" parent="WIyWlLk6GJQsqaUBKTNV-1">
          <mxGeometry x="280" y="190" width="90" height="20" as="geometry" />
        </mxCell>
        <mxCell id="sqbIsw3hlbKRLwTeyo-x-21" value="更新UI" style="ellipse;whiteSpace=wrap;html=1;labelBackgroundColor=default;labelBorderColor=#6666FF;fontSize=15;" vertex="1" parent="WIyWlLk6GJQsqaUBKTNV-1">
          <mxGeometry x="180" y="240" width="120" height="80" as="geometry" />
        </mxCell>
        <mxCell id="sqbIsw3hlbKRLwTeyo-x-22" value="" style="endArrow=classic;html=1;rounded=0;fontSize=15;" edge="1" parent="WIyWlLk6GJQsqaUBKTNV-1">
          <mxGeometry width="50" height="50" relative="1" as="geometry">
            <mxPoint x="160" y="260" as="sourcePoint" />
            <mxPoint x="140" y="190" as="targetPoint" />
          </mxGeometry>
        </mxCell>
        <mxCell id="sqbIsw3hlbKRLwTeyo-x-23" value="UI" style="text;html=1;resizable=0;autosize=1;align=center;verticalAlign=middle;points=[];fillColor=none;strokeColor=none;rounded=0;labelBackgroundColor=default;labelBorderColor=#6666FF;fontSize=15;" vertex="1" parent="WIyWlLk6GJQsqaUBKTNV-1">
          <mxGeometry x="160" y="220" width="30" height="20" as="geometry" />
        </mxCell>
        <mxCell id="sqbIsw3hlbKRLwTeyo-x-24" value="" style="endArrow=classic;html=1;rounded=0;fontSize=15;" edge="1" parent="WIyWlLk6GJQsqaUBKTNV-1">
          <mxGeometry width="50" height="50" relative="1" as="geometry">
            <mxPoint x="99.5" y="187.5" as="sourcePoint" />
            <mxPoint x="100" y="360" as="targetPoint" />
          </mxGeometry>
        </mxCell>
        <mxCell id="sqbIsw3hlbKRLwTeyo-x-25" value="" style="endArrow=classic;html=1;rounded=0;fontSize=15;" edge="1" parent="WIyWlLk6GJQsqaUBKTNV-1">
          <mxGeometry width="50" height="50" relative="1" as="geometry">
            <mxPoint x="100" y="360" as="sourcePoint" />
            <mxPoint x="260" y="360" as="targetPoint" />
          </mxGeometry>
        </mxCell>
        <mxCell id="sqbIsw3hlbKRLwTeyo-x-26" value="&lt;font style=&quot;font-size: 15px;&quot;&gt;選擇道具&lt;/font&gt;" style="text;html=1;resizable=0;autosize=1;align=center;verticalAlign=middle;points=[];fillColor=none;strokeColor=none;rounded=0;labelBackgroundColor=default;labelBorderColor=#6666FF;" vertex="1" parent="WIyWlLk6GJQsqaUBKTNV-1">
          <mxGeometry x="135" y="330" width="80" height="20" as="geometry" />
        </mxCell>
        <mxCell id="sqbIsw3hlbKRLwTeyo-x-27" value="|道具" style="rounded=0;whiteSpace=wrap;html=1;" vertex="1" parent="WIyWlLk6GJQsqaUBKTNV-1">
          <mxGeometry x="280" y="340" width="120" height="60" as="geometry" />
        </mxCell>
        <mxCell id="sqbIsw3hlbKRLwTeyo-x-28" value="" style="endArrow=classic;html=1;rounded=0;" edge="1" parent="WIyWlLk6GJQsqaUBKTNV-1">
          <mxGeometry width="50" height="50" relative="1" as="geometry">
            <mxPoint x="435" y="369.5" as="sourcePoint" />
            <mxPoint x="515" y="370" as="targetPoint" />
          </mxGeometry>
        </mxCell>
        <mxCell id="sqbIsw3hlbKRLwTeyo-x-29" value="&lt;span style=&quot;font-size: 15px;&quot;&gt;道具數值&lt;/span&gt;" style="text;html=1;resizable=0;autosize=1;align=center;verticalAlign=middle;points=[];fillColor=none;strokeColor=none;rounded=0;labelBackgroundColor=default;labelBorderColor=#6666FF;" vertex="1" parent="WIyWlLk6GJQsqaUBKTNV-1">
          <mxGeometry x="430" y="340" width="80" height="20" as="geometry" />
        </mxCell>
        <mxCell id="sqbIsw3hlbKRLwTeyo-x-30" value="|主角" style="rounded=0;whiteSpace=wrap;html=1;" vertex="1" parent="WIyWlLk6GJQsqaUBKTNV-1">
          <mxGeometry x="540" y="340" width="120" height="60" as="geometry" />
        </mxCell>
        <mxCell id="sqbIsw3hlbKRLwTeyo-x-31" value="" style="curved=1;endArrow=classic;html=1;rounded=0;fontSize=15;" edge="1" parent="WIyWlLk6GJQsqaUBKTNV-1">
          <mxGeometry width="50" height="50" relative="1" as="geometry">
            <mxPoint x="610" y="630" as="sourcePoint" />
            <mxPoint x="530" y="680" as="targetPoint" />
            <Array as="points">
              <mxPoint x="610" y="680" />
            </Array>
          </mxGeometry>
        </mxCell>
        <mxCell id="sqbIsw3hlbKRLwTeyo-x-32" value="更新UI" style="ellipse;whiteSpace=wrap;html=1;labelBackgroundColor=default;labelBorderColor=#6666FF;fontSize=15;" vertex="1" parent="WIyWlLk6GJQsqaUBKTNV-1">
          <mxGeometry x="380" y="430" width="120" height="80" as="geometry" />
        </mxCell>
        <mxCell id="sqbIsw3hlbKRLwTeyo-x-33" value="更新後數值" style="text;html=1;resizable=0;autosize=1;align=center;verticalAlign=middle;points=[];fillColor=none;strokeColor=none;rounded=0;labelBackgroundColor=default;labelBorderColor=#6666FF;fontSize=15;" vertex="1" parent="WIyWlLk6GJQsqaUBKTNV-1">
          <mxGeometry x="500" y="420" width="90" height="20" as="geometry" />
        </mxCell>
        <mxCell id="sqbIsw3hlbKRLwTeyo-x-35" value="" style="endArrow=classic;html=1;rounded=0;fontSize=15;" edge="1" parent="WIyWlLk6GJQsqaUBKTNV-1">
          <mxGeometry width="50" height="50" relative="1" as="geometry">
            <mxPoint x="370" y="480" as="sourcePoint" />
            <mxPoint x="80" y="480.5" as="targetPoint" />
          </mxGeometry>
        </mxCell>
        <mxCell id="sqbIsw3hlbKRLwTeyo-x-36" value="" style="endArrow=classic;html=1;rounded=0;fontSize=15;" edge="1" parent="WIyWlLk6GJQsqaUBKTNV-1">
          <mxGeometry width="50" height="50" relative="1" as="geometry">
            <mxPoint x="80" y="470" as="sourcePoint" />
            <mxPoint x="80" y="210" as="targetPoint" />
          </mxGeometry>
        </mxCell>
        <mxCell id="sqbIsw3hlbKRLwTeyo-x-37" value="UI" style="text;html=1;resizable=0;autosize=1;align=center;verticalAlign=middle;points=[];fillColor=none;strokeColor=none;rounded=0;labelBackgroundColor=default;labelBorderColor=#6666FF;fontSize=15;" vertex="1" parent="WIyWlLk6GJQsqaUBKTNV-1">
          <mxGeometry x="200" y="450" width="30" height="20" as="geometry" />
        </mxCell>
        <mxCell id="sqbIsw3hlbKRLwTeyo-x-38" value="" style="endArrow=classic;html=1;rounded=0;fontSize=15;" edge="1" parent="WIyWlLk6GJQsqaUBKTNV-1">
          <mxGeometry width="50" height="50" relative="1" as="geometry">
            <mxPoint x="60" y="210" as="sourcePoint" />
            <mxPoint x="60" y="580" as="targetPoint" />
          </mxGeometry>
        </mxCell>
        <mxCell id="sqbIsw3hlbKRLwTeyo-x-39" value="" style="endArrow=classic;html=1;rounded=0;fontSize=15;" edge="1" parent="WIyWlLk6GJQsqaUBKTNV-1">
          <mxGeometry width="50" height="50" relative="1" as="geometry">
            <mxPoint x="70" y="585" as="sourcePoint" />
            <mxPoint x="270" y="585" as="targetPoint" />
          </mxGeometry>
        </mxCell>
        <mxCell id="sqbIsw3hlbKRLwTeyo-x-40" value="&lt;span style=&quot;font-size: 15px;&quot;&gt;邀請敵人&lt;/span&gt;" style="text;html=1;resizable=0;autosize=1;align=center;verticalAlign=middle;points=[];fillColor=none;strokeColor=none;rounded=0;labelBackgroundColor=default;labelBorderColor=#6666FF;" vertex="1" parent="WIyWlLk6GJQsqaUBKTNV-1">
          <mxGeometry x="100" y="540" width="80" height="20" as="geometry" />
        </mxCell>
        <mxCell id="sqbIsw3hlbKRLwTeyo-x-41" value="成功邀請" style="ellipse;whiteSpace=wrap;html=1;labelBackgroundColor=default;labelBorderColor=#6666FF;fontSize=15;" vertex="1" parent="WIyWlLk6GJQsqaUBKTNV-1">
          <mxGeometry x="280" y="540" width="120" height="80" as="geometry" />
        </mxCell>
        <mxCell id="sqbIsw3hlbKRLwTeyo-x-42" value="" style="endArrow=classic;html=1;rounded=0;fontSize=15;" edge="1" parent="WIyWlLk6GJQsqaUBKTNV-1">
          <mxGeometry width="50" height="50" relative="1" as="geometry">
            <mxPoint x="430" y="579.5" as="sourcePoint" />
            <mxPoint x="526" y="580" as="targetPoint" />
          </mxGeometry>
        </mxCell>
        <mxCell id="sqbIsw3hlbKRLwTeyo-x-43" value="&lt;span style=&quot;font-size: 15px;&quot;&gt;敵人資訊&lt;/span&gt;" style="text;html=1;resizable=0;autosize=1;align=center;verticalAlign=middle;points=[];fillColor=none;strokeColor=none;rounded=0;labelBackgroundColor=default;labelBorderColor=#6666FF;" vertex="1" parent="WIyWlLk6GJQsqaUBKTNV-1">
          <mxGeometry x="430" y="540" width="80" height="20" as="geometry" />
        </mxCell>
        <mxCell id="sqbIsw3hlbKRLwTeyo-x-44" value="|隊員" style="rounded=0;whiteSpace=wrap;html=1;" vertex="1" parent="WIyWlLk6GJQsqaUBKTNV-1">
          <mxGeometry x="540" y="550" width="120" height="60" as="geometry" />
        </mxCell>
        <mxCell id="sqbIsw3hlbKRLwTeyo-x-45" value="更新UI" style="ellipse;whiteSpace=wrap;html=1;labelBackgroundColor=default;labelBorderColor=#6666FF;fontSize=15;" vertex="1" parent="WIyWlLk6GJQsqaUBKTNV-1">
          <mxGeometry x="390" y="640" width="120" height="80" as="geometry" />
        </mxCell>
        <mxCell id="sqbIsw3hlbKRLwTeyo-x-46" value="" style="curved=1;endArrow=classic;html=1;rounded=0;fontSize=15;" edge="1" parent="WIyWlLk6GJQsqaUBKTNV-1">
          <mxGeometry width="50" height="50" relative="1" as="geometry">
            <mxPoint x="610" y="415" as="sourcePoint" />
            <mxPoint x="530" y="465" as="targetPoint" />
            <Array as="points">
              <mxPoint x="610" y="465" />
            </Array>
          </mxGeometry>
        </mxCell>
        <mxCell id="sqbIsw3hlbKRLwTeyo-x-47" value="" style="endArrow=classic;html=1;rounded=0;fontSize=15;" edge="1" parent="WIyWlLk6GJQsqaUBKTNV-1">
          <mxGeometry width="50" height="50" relative="1" as="geometry">
            <mxPoint x="330" y="690" as="sourcePoint" />
            <mxPoint x="40" y="690.5" as="targetPoint" />
          </mxGeometry>
        </mxCell>
        <mxCell id="sqbIsw3hlbKRLwTeyo-x-48" value="" style="endArrow=classic;html=1;rounded=0;fontSize=15;" edge="1" parent="WIyWlLk6GJQsqaUBKTNV-1">
          <mxGeometry width="50" height="50" relative="1" as="geometry">
            <mxPoint x="40" y="670" as="sourcePoint" />
            <mxPoint x="40" y="210" as="targetPoint" />
          </mxGeometry>
        </mxCell>
        <mxCell id="sqbIsw3hlbKRLwTeyo-x-49" value="UI" style="text;html=1;resizable=0;autosize=1;align=center;verticalAlign=middle;points=[];fillColor=none;strokeColor=none;rounded=0;labelBackgroundColor=default;labelBorderColor=#6666FF;fontSize=15;" vertex="1" parent="WIyWlLk6GJQsqaUBKTNV-1">
          <mxGeometry x="180" y="660" width="30" height="20" as="geometry" />
        </mxCell>
      </root>
    </mxGraphModel>
  </diagram>
</mxfile>
